HIERARCHY
ROOT root     
{
	OFFSET 0.0000 0.0000 0.0000
	CHANNELS 6 Xposition Yposition Zposition Zrotation Yrotation Xrotation
	JOINT pelvis   
	{
		OFFSET 0.0000 0.0000 0.0000
		CHANNELS 3 Zrotation Yrotation Xrotation
		JOINT thorax   
		{
			OFFSET 0.0000 23.0750 -5.0000
			CHANNELS 3 Zrotation Yrotation Xrotation
			JOINT rclavicle
			{
				OFFSET 0.0000 28.0009 0.0000
				CHANNELS 3 Zrotation Yrotation Xrotation
				JOINT rhumerus 
				{
					OFFSET -18.5725 5.5939 0.0000
					CHANNELS 3 Zrotation Yrotation Xrotation
					JOINT rradius  
					{
						OFFSET -24.8459 0.0000 0.0000
						CHANNELS 3 Zrotation Yrotation Xrotation
						JOINT rhand    
						{
							OFFSET -24.5477 0.0000 0.0000
							CHANNELS 3 Zrotation Yrotation Xrotation
							End Site
							{
								OFFSET -8.1826 0.0000 0.0000
							}
						}
					}
				}
			}
			JOINT lclavicle
			{
				OFFSET 0.0000 28.0009 0.0000
				CHANNELS 3 Zrotation Yrotation Xrotation
				JOINT lhumerus 
				{
					OFFSET 18.5725 5.5939 0.0000
					CHANNELS 3 Zrotation Yrotation Xrotation
					JOINT lradius  
					{
						OFFSET 24.8459 0.0000 0.0000
						CHANNELS 3 Zrotation Yrotation Xrotation
						JOINT lhand    
						{
							OFFSET 24.5477 0.0000 0.0000
							CHANNELS 3 Zrotation Yrotation Xrotation
							End Site
							{
								OFFSET 8.1826 0.0000 0.0000
							}
						}
					}
				}
			}
			JOINT head     
			{
				OFFSET 0.0000 35.2030 0.0000
				CHANNELS 3 Zrotation Yrotation Xrotation
				End Site
				{
					OFFSET 0.0000 11.7343 0.0000
				}
			}
		}
		JOINT rfemur   
		{
			OFFSET -8.2817 0.0000 0.0000
			CHANNELS 3 Zrotation Yrotation Xrotation
			JOINT rtibia   
			{
				OFFSET 0.0000 -43.3627 0.0000
				CHANNELS 3 Zrotation Yrotation Xrotation
				JOINT rfoot    
				{
					OFFSET 0.0000 -38.2947 0.0000
					CHANNELS 3 Zrotation Yrotation Xrotation
					JOINT rtoes    
					{
						OFFSET 0.0000 0.0000 16.6054
						CHANNELS 3 Zrotation Yrotation Xrotation
						End Site
						{
							OFFSET 0.0000 0.0000 5.5351
						}
					}
				}
			}
		}
		JOINT lfemur   
		{
			OFFSET 8.2817 0.0000 0.0000
			CHANNELS 3 Zrotation Yrotation Xrotation
			JOINT ltibia   
			{
				OFFSET 0.0000 -43.3627 0.0000
				CHANNELS 3 Zrotation Yrotation Xrotation
				JOINT lfoot    
				{
					OFFSET 0.0000 -38.2947 0.0000
					CHANNELS 3 Zrotation Yrotation Xrotation
					JOINT ltoes    
					{
						OFFSET 0.0000 0.0000 16.6054
						CHANNELS 3 Zrotation Yrotation Xrotation
						End Site
						{
							OFFSET 0.0000 0.0000 5.5351
						}
					}
				}
			}
		}
	}
}
MOTION
Frames: 11
Frame Time: .0333333
-80.18 79.216 -8.6248 -34.4367 85.0502 -10.587 0 -0 0 -2.69155 1.4383 19.8724 20.7981 -5.66081 4.71723e-06 53.7832 -2.84236 8.61332 -180 87.6826 -180 -4.78904 2.93692 -0.122799 -20.1318 12.7481 6.47124e-06 -55.6238 20.1184 8.24103 0 -84.022 0 -0.915405 3.7947 -0.0303002 5.29174 -1.28676 -15.4971 -0.494258 -14.7661 -32.8145 -0 -0 67.7781 -2.49258e-05 12.9192 15.5368 3.51586 -1.55455e-05 -90.1999 -5.56835 10.3871 -61.6349 -0 -0 44.9779 -4.44402e-07 9.58654 4.18301 0.705795 1.85487e-06 -16.221 
-79.208 79.058 -8.7683 -33.1566 85.0885 -9.53016 0 -0 0 -2.93686 1.37129 19.8833 20.8614 -5.60228 -6.21533e-06 54.1432 -3.08536 8.48131 180 88.1728 180 -4.76606 2.94806 -0.1227 -20.1314 12.4811 -8.44737e-05 -55.3661 19.3448 8.15761 -0 -83.63 0 -0.731409 3.85664 -0.0246001 5.24801 -1.29312 -15.529 -1.05009 -14.5909 -32.665 -0 -0 68.7155 7.66577e-05 12.9883 16.8588 3.82689 -7.6703e-05 -89.6968 -5.69508 10.3636 -61.4577 -0 -0 46.4012 3.40212e-06 9.76901 3.13697 0.5398 8.72638e-07 -16.0775 
-78.25 78.914 -8.9086 -31.9215 85.1335 -8.51614 0 -0 0 -3.14675 1.30698 19.9079 20.896 -5.53537 -2.14839e-05 54.5275 -3.32473 8.34844 180 88.7463 180 -4.77317 2.965 -0.123599 -20.1552 12.2077 8.77444e-06 -55.067 18.5005 8.08986 0 -83.2315 0 -0.555992 3.90646 -0.0189999 5.13503 -1.29166 -15.511 -1.55405 -14.3625 -32.568 -0 -0 69.654 2.24266e-05 12.9408 18.3353 4.13438 2.83247e-05 -88.9634 -5.80552 10.311 -61.2012 -0 -0 47.69 5.75633e-06 10.011 1.94274 0.3429 -1.79125e-06 -16.1977 
-77.304 78.786 -9.0454 -30.7275 85.1873 -7.54501 0 -0 0 -3.32321 1.2431 19.9503 20.9043 -5.46958 2.83248e-05 54.9245 -3.5412 8.23132 180 89.3431 180 -4.80166 2.99004 -0.1254 -20.1904 11.9602 -6.87978e-05 -54.7441 17.5586 8.0456 -0 -82.8066 0 -0.389699 3.94625 -0.0133998 4.95828 -1.27773 -15.446 -2.00319 -14.0791 -32.5125 -0 -0 70.5796 6.80542e-05 12.7735 19.9341 4.41961 -7.95953e-06 -87.9512 -5.88728 10.2235 -60.8634 -0 -0 48.8431 4.77999e-07 10.3088 0.667102 0.121296 -4.69367e-07 -16.5403 
-76.373 78.672 -9.1761 -29.6885 85.2211 -6.71392 0 -0 0 -3.45856 1.17719 19.9911 20.8899 -5.39523 -1.50861e-05 55.3234 -3.74131 8.13407 -0.000360641 89.8174 -0.000360789 -4.83907 3.02356 -0.1278 -20.2501 11.7108 -0.000186171 -54.4069 16.584 7.98023 -2.42625e-06 -82.387 2.1237e-06 -0.227197 3.96875 -0.00789978 4.72304 -1.24405 -15.328 -2.37899 -13.7331 -32.5185 -0 -0 71.4911 -8.26203e-07 12.4698 21.6616 4.66654 1.29947e-06 -86.6082 -5.92651 10.1068 -60.468 -0 -0 49.8748 1.18809e-06 10.6543 -0.622188 -0.117098 9.85258e-08 -17.0338 
-75.458 78.572 -9.3003 -28.798 85.2363 -6.01955 0 -0 0 -3.56009 1.10679 20.0359 20.8567 -5.32133 2.10096e-05 55.7147 -3.91092 8.06807 -2.19226e-05 89.2819 -2.22194e-05 -4.87545 3.06601 -0.130599 -20.3176 11.4855 -7.17767e-05 -54.067 15.5516 7.90743 0 -81.9717 0 -0.0675995 3.98161 -0.00239997 4.44384 -1.19154 -15.1653 -2.68411 -13.3275 -32.5771 -0 -0 72.3843 -0.000123935 12.006 23.4417 4.83612 -1.45096e-05 -84.8302 -5.91972 9.95752 -60.0183 -0 -0 50.7932 -1.0042e-05 11.0399 -1.86846 -0.3645 -1.49597e-06 -17.6018 
-74.559 78.485 -9.4166 -28.0881 85.247 -5.49392 0 -0 0 -3.62898 1.0304 20.0752 20.8118 -5.24467 1.11655e-05 56.091 -4.05525 8.0332 -1.06539e-06 88.4201 -1.66793e-06 -4.90189 3.11615 -0.133397 -20.3908 11.2741 4.62595e-05 -53.7344 14.4896 7.80675 0 -81.5781 0 0.0923012 3.98593 0.00320006 4.13424 -1.12143 -14.9603 -2.91296 -12.865 -32.6949 -0 -0 73.2612 3.13627e-05 11.3503 25.2077 4.88643 -7.59582e-05 -82.5377 -5.86621 9.77966 -59.5394 -0 -0 51.6153 7.41044e-07 11.4548 -3.0267 -0.612996 1.87816e-07 -18.1585 
-73.678 78.412 -9.5242 -27.5805 85.2378 -5.15055 0 -0 0 -3.67036 0.946682 20.1067 20.7594 -5.16765 -1.12712e-05 56.4445 -4.1754 8.02892 -3.43583e-06 87.543 -3.58678e-06 -4.91109 3.17283 -0.136101 -20.4645 11.0809 1.82122e-05 -53.412 13.3996 7.68355 -1.49539e-06 -81.1832 1.28131e-06 0.254607 3.98731 0.0089003 3.80963 -1.03814 -14.7213 -3.0662 -12.3527 -32.8786 -0 -0 74.1288 4.21317e-05 10.4636 26.8727 4.77189 3.54145e-05 -79.6908 -5.77089 9.57979 -59.0416 -0 -0 52.3556 1.73638e-05 11.8868 -4.06938 -0.855785 3.14233e-06 -18.637 
-72.817 78.351 -9.6223 -27.2307 85.2142 -4.94395 0 -0 0 -3.68897 0.85589 20.1293 20.7054 -5.08905 -4.3303e-06 56.7766 -4.27958 8.04889 -2.34465e-06 86.6003 -2.92807e-06 -4.89913 3.23377 -0.138397 -20.5319 10.8991 -8.47114e-06 -53.1018 12.2921 7.53579 -1.22513e-06 -80.8057 1.43928e-06 0.419902 3.99076 0.0145998 3.48472 -0.947982 -14.4543 -3.14618 -11.8013 -33.1331 -0 -0 74.9951 8.88153e-05 9.31051 28.3412 4.45019 -2.25516e-05 -76.295 -5.64289 9.36585 -58.5427 -0 -0 53.027 1.19322e-05 12.3242 -4.98487 -1.08758 4.48534e-06 -18.9963 
-71.975 78.304 -9.7107 -27.041 85.1789 -4.87526 0 -0 0 -3.68972 0.758197 20.1439 20.6535 -5.01121 -2.31368e-05 57.0862 -4.37329 8.0851 -3.29375e-06 85.6218 -3.55537e-06 -4.86407 3.29727 -0.140097 -20.5884 10.7352 2.6493e-05 -52.8006 11.1561 7.37826 -1.96436e-06 -80.4521 1.66147e-06 0.588494 4.0038 0.0205997 3.17154 -0.857814 -14.1658 -3.15854 -11.2231 -33.4591 -0 -0 75.864 -1.38353e-05 7.869 29.5174 3.89544 1.8212e-05 -72.4398 -5.49338 9.14768 -58.049 -0 -0 53.6379 -1.25803e-05 12.7541 -5.77726 -1.3052 -1.01391e-05 -19.2244 
-71.153 78.269 -9.7887 -27.0011 85.1345 -4.92921 0 -0 0 -3.67419 0.655591 20.145 20.6048 -4.93122 -4.03636e-06 57.3782 -4.47027 8.12726 2.91004e-06 84.6099 2.64834e-06 -4.8113 3.36216 -0.141298 -20.6333 10.5638 -1.61268e-05 -52.5048 10.0235 7.1982 -2.26316e-06 -80.1175 2.69162e-06 0.756408 4.0237 0.0266004 2.87908 -0.773399 -13.8591 -3.10521 -10.6284 -33.8686 -0 -0 76.7416 -5.4468e-05 6.13546 30.3271 3.10692 1.2699e-05 -68.2788 -5.33334 8.93754 -57.5739 -0 -0 54.1956 -1.06729e-05 13.1637 -6.46209 -1.50781 -5.56525e-06 -19.3319 
